<?xml version="1.0" encoding="utf-8"?>
<!-- Generator: Adobe Illustrator 16.0.0, SVG Export Plug-In . SVG Version: 6.00 Build 0)  -->
<!DOCTYPE svg PUBLIC "-//W3C//DTD SVG 1.1//EN" "http://www.w3.org/Graphics/SVG/1.1/DTD/svg11.dtd">
<svg version="1.1" id="Layer_1" xmlns="http://www.w3.org/2000/svg" xmlns:xlink="http://www.w3.org/1999/xlink" x="0px" y="0px"
	 width="2082.721px" height="551.931px" viewBox="0 0 2082.721 551.931" enable-background="new 0 0 2082.721 551.931"
	 xml:space="preserve">
<g>
	<path d="M0,550.931C0,367.287,0,183.644,0,0c631.253,0,1262.508,0,1893.762,0c1.126,1.21,2.195,2.479,3.386,3.623
		c60.442,58.053,120.912,116.077,181.259,174.23c1.769,1.704,3.188,4.741,3.195,7.161c0.174,60.314,0.168,120.631,0.014,180.947
		c-0.006,2.298-1.229,5.209-2.881,6.801c-60.227,58.035-120.601,115.921-180.832,173.95c-3.271,3.152-6.467,4.311-10.945,4.31
		C1257.972,550.926,628.985,550.931,0,550.931z M565.204,356.603c1.329,0.12,2.289,0.283,3.25,0.284
		c20.486,0.015,40.974,0.124,61.458-0.049c6.93-0.059,13.935-0.334,20.758-1.427c7.69-1.231,15.523-2.706,22.729-5.521
		c8.124-3.176,16.266-7.084,23.247-12.236c13.484-9.949,21.653-23.878,25.473-40.181c1.57-6.704,3.258-13.53,3.528-20.354
		c0.46-11.636-0.574-23.154-3.135-34.716c-2.594-11.708-7.594-22.028-14.556-31.238c-9.064-11.991-21.524-20.266-35.963-24.117
		c-11.805-3.149-24.15-5.251-36.341-5.763c-21.615-0.907-43.293-0.254-64.946-0.254c-1.763,0-3.526,0-5.501,0
		C565.204,239.834,565.204,297.918,565.204,356.603z M93.035,355.941c11.639,0,21.793-0.045,31.948,0.025
		c3.396,0.023,4.673-1.739,4.817-4.842c0.047-1.022,0.262-2.044,0.464-3.053c1.173-5.871,2.46-11.723,3.522-17.614
		c0.985-5.462,1.737-10.966,2.563-16.272c6.891,0,13.214,0,20.052,0c-1.396,14.051-5.971,27.536-6.789,41.757
		c11.205,0,21.368,0.154,31.517-0.158c1.61-0.05,4.153-1.937,4.551-3.431c1.44-5.409,2.184-11.007,3.125-16.545
		c1.236-7.268,2.41-14.547,3.613-21.833c7.185,0,13.642,0,19.929,0c2.104-10.966,4.177-21.765,6.325-32.958
		c-5.829,0-10.981-0.145-16.122,0.051c-3.335,0.127-3.327-1.776-2.926-4.036c0.938-5.282,2.017-10.54,2.937-15.825
		c1.442-8.287,1.407-8.294,10.087-8.294c3.936,0,7.872,0,11.65,0c2.217-11.407,4.319-22.225,6.495-33.42c-6.823,0-13.221,0-19.937,0
		c2.583-12.942,5.085-25.481,7.634-38.255c-11.966,0-23.735,0-35.661,0c-2.623,12.887-5.228,25.694-7.82,38.435
		c-6.671,0-12.949,0-19.947,0c2.513-12.861,4.969-25.424,7.49-38.321c-12.041,0-23.958,0-35.767,0
		c-2.576,12.788-5.148,25.556-7.759,38.518c-6.703,0-13.149,0-19.35,0c-2.145,11.001-4.234,21.714-6.434,32.999
		c6.503,0,12.589,0,18.875,0c0.134,1.404,0.448,2.363,0.271,3.223c-1.232,6.004-3.397,11.954-3.641,17.986
		c-0.262,6.475-3.239,7.428-8.544,7.008c-4.125-0.326-8.296-0.064-12.506-0.064c-2.184,11.223-4.312,22.156-6.468,33.232
		c6.691,0,12.825,0,19.538,0C98.191,328.137,95.663,341.771,93.035,355.941z M392.098,294.705
		c2.301,12.302,4.453,24.655,12.197,35.451c7.592,10.586,16.692,18.933,29.086,23.065c6.998,2.334,14.217,4.532,21.498,5.34
		c7.283,0.808,14.775-0.529,22.157-0.319c10.396,0.297,20.087-2.522,29.164-6.867c11.015-5.272,19.869-12.888,26.455-23.894
		c5.659-9.457,8.601-19.484,9.763-29.759c1.106-9.781-0.93-19.896-1.312-29.875c-0.659-17.19-9.473-30.127-21.854-40.789
		c-12.603-10.851-28.391-14.19-44.357-15.729c-8.077-0.779-16.607-0.65-24.471,1.119c-9.93,2.235-19.698,5.001-28.839,10.683
		c-19.524,12.135-26.579,30.592-29.354,51.663C391.38,281.255,392.098,287.919,392.098,294.705z M741.058,294.991
		c2.375,12.225,4.567,24.708,12.5,35.626c7.785,10.715,17.243,18.837,29.71,23.051c6.68,2.258,13.646,4.2,20.623,4.901
		c7.301,0.733,14.777-0.519,22.161-0.316c10.396,0.286,20.072-2.568,29.16-6.903c11.032-5.264,19.869-12.913,26.44-23.895
		c5.657-9.453,8.599-19.496,9.724-29.793c1.071-9.793-0.966-19.898-1.286-29.878c-0.312-9.748-3.233-18.72-9.051-26.244
		c-5.003-6.469-10.773-12.718-17.333-17.523c-9.839-7.209-21.595-9.722-33.702-11.689c-10.438-1.696-20.749-1.623-30.691,0.2
		c-9.952,1.824-19.692,4.953-28.83,10.643c-19.511,12.153-26.554,30.604-29.295,51.682
		C740.348,281.314,741.058,287.977,741.058,294.991z M1052.852,355.734c0-31.212,0.263-61.865-0.133-92.511
		c-0.153-11.884-2.457-23.167-9.267-33.852c-7.932-12.447-19.725-15.938-32.531-17.793c-5.939-0.86-12.234,0.696-18.364,1.196
		c-9.517,0.777-17.946,4.089-25.037,10.641c-2.872,2.654-5.934,5.102-8.883,7.62c0-5.132,0-10.856,0-16.562
		c-15.396,0-30.261,0-44.697,0c0,47.208,0,94.129,0,141.216c16.67,0,32.916,0,49.726,0c0-2.031,0-3.816,0-5.6
		c0-27.995,0.073-55.989-0.075-83.983c-0.023-4.473,1.8-6.532,5.707-8.521c5.981-3.044,11.861-3.536,18.364-2.839
		c8.069,0.864,14.639,7.511,14.594,15.521c-0.154,27.482-0.226,54.968-0.312,82.451c-0.003,0.948,0.174,1.897,0.282,3.016
		C1019.116,355.734,1035.705,355.734,1052.852,355.734z M1611.716,256.806c-1.9-6.438-2.677-12.933-5.643-18.193
		c-4.238-7.516-10.174-13.483-18.421-17.803c-11.18-5.857-22.92-8.246-35.014-9.459c-11.485-1.151-22.909,0.444-34.161,3.185
		c-16.66,4.057-35.13,17.498-35.656,39.529c-0.193,8.061,0.398,16.191,4.489,23.075c7.191,12.101,19.288,17.929,32.199,21.833
		c12.872,3.893,25.964,7.056,38.925,10.664c5.518,1.536,8.495,4.858,7.674,9.023c-0.856,4.349-4.814,5.647-8.525,6.773
		c-5.196,1.576-10.209,1.199-15.597-0.136c-8.066-1.999-13.862-7.914-13.833-16.091c-16.608,0-33.216,0-50.51,0
		c1.473,5.815,2.133,11.576,4.363,16.646c6.773,15.396,19.562,24.128,35.128,28.801c7.652,2.298,15.41,4.381,23.8,3.696
		c10.56-0.862,21.419,0.731,31.784-0.961c12.184-1.988,24.105-6.489,32.394-16.463c3.96-4.766,7.188-10.519,9.3-16.348
		c2.504-6.914,3.532-14.489,1.039-21.762c-1.625-4.738-3.641-9.494-6.358-13.671c-5.39-8.287-14.192-12.111-23.023-15.335
		c-7.325-2.675-14.877-4.95-22.511-6.5c-9.723-1.976-19.775-2.885-27.828-9.311c-1.706-1.361-2.897-5.058-2.373-7.202
		c1.6-6.548,9.309-9.421,17.33-6.907c6.333,1.984,9.597,6.924,11.521,12.916C1578.299,256.806,1594.284,256.806,1611.716,256.806z
		 M290.075,225.204c0,43.781,0,87.143,0,130.445c17.56,0,34.482,0,51.846,0c0-43.647,0-87.006,0-130.701c16.197,0,31.952,0,47.588,0
		c0-14.742,0-29.14,0-43.626c-49.292,0-98.195,0-147.188,0c0,14.682,0,29.071,0,43.882
		C258.252,225.204,273.85,225.204,290.075,225.204z M1268.267,181.199c0,58.47,0,116.477,0,174.45c41.942,0,83.512,0,125.133,0
		c0-14.671,0-29.044,0-43.809c-24.623,0-48.876,0-73.691,0c0-43.754,0-87.117,0-130.641
		C1302.354,181.199,1285.566,181.199,1268.267,181.199z M1243.631,317.567c-7.803,0.569-15.26,1.068-22.707,1.668
		c-8.385,0.675-17.003-7.218-16.875-15.391c0.245-15.79,0.399-31.58,0.585-47.371c0.021-1.745,0.003-3.491,0.003-5.74
		c14.174,0,27.571,0,40.813,0c0-12.416,0-24.312,0-36.78c-13.763,0-27.151,0-40.897,0c0-13.178,0-25.778,0-38.458
		c-13.278,0-26.18,0-39.449,0c0,8.07,0.04,15.845-0.027,23.618c-0.018,2.054,0.118,4.31-0.648,6.122
		c-3.236,7.642-7.591,9.788-16.221,9.064c-4.248-0.356-8.548-0.062-12.857-0.062c0,12.385,0,24.298,0,36.78
		c6.492,0,12.726,0,18.729,0c0.332,0.867,0.547,1.165,0.548,1.464c0.043,19.323,0.594,38.667-0.18,57.958
		c-0.28,6.977,1.348,13.172,3.065,19.506c2.026,7.475,6.313,13.995,12.599,18.357c9.274,6.437,19.599,9.62,31.284,10.151
		c11.322,0.515,22.311-0.442,33.376-2.035c8.057-1.16,8.86-2.126,8.86-10.229C1243.631,336.373,1243.631,326.557,1243.631,317.567z
		 M1641.278,251.085c0.161,0.979,0.354,1.607,0.354,2.235c0.022,18.991,0.524,38.001-0.231,56.963
		c-0.277,6.954,1.17,13.199,3.007,19.517c2.251,7.745,6.673,14.349,13.294,19.03c10.992,7.772,23.613,10.439,36.812,10.016
		c9.188-0.294,18.457-0.925,27.45-2.651c2.684-0.516,8.535,0.538,8.575-5.356c0.079-11.461,0.023-22.922,0.023-33.332
		c-7.7,0.58-15.127,1.107-22.55,1.706c-8.479,0.684-17.113-6.967-17.027-15.217c0.172-16.289,0.385-32.579,0.602-48.868
		c0.017-1.272,0.195-2.542,0.337-4.29c13.708,0,27.108,0,40.522,0c0-12.411,0-24.309,0-36.78c-13.704,0-27.097,0-41.023,0
		c0-13.292,0-26.014,0-38.451c-13.465,0-26.376,0-39.334,0c-0.103,1.233-0.233,2.057-0.229,2.88
		c0.037,6.825,0.161,13.651,0.115,20.476c-0.015,2.204,0.062,4.632-0.792,6.566c-3.296,7.464-7.598,9.518-15.886,8.787
		c-4.256-0.375-8.573-0.065-12.896-0.065c0,12.386,0,24.421,0,36.836C1628.904,251.085,1635.019,251.085,1641.278,251.085z
		 M1915.626,275.55c0.062-29.182-23.941-53.231-53.08-53.182c-29.097,0.049-52.753,23.662-52.86,52.762
		c-0.109,29.46,23.336,53.235,52.691,53.433C1891.462,328.758,1915.563,304.765,1915.626,275.55z M1459.381,355.8
		c0-47.394,0-94.283,0-141.394c-16.774,0-33.363,0-49.439,0c0,47.18,0,94.217,0,141.394
		C1426.581,355.8,1442.707,355.8,1459.381,355.8z M1072.241,170.09c0,16.84,0,33.069,0,49.865c8.392,0,16.437,0,25.069,0
		c-8.68,15.434-16.966,30.166-25.386,45.137c7.121,0,13.897,0.072,20.669-0.062c1.322-0.026,3.208-0.461,3.842-1.387
		c2.789-4.075,5.26-8.372,7.766-12.635c5.489-9.344,11.038-18.656,16.313-28.121c1.265-2.268,2.137-5.07,2.189-7.647
		c0.231-11.484,0.101-22.976,0.101-34.464c0-3.609-0.001-7.218-0.001-10.684C1105.604,170.09,1089.01,170.09,1072.241,170.09z
		 M1459.303,191.626c0-14.395,0-28.291,0-42.135c-16.818,0-33.334,0-49.729,0c0,14.203,0,28.107,0,42.135
		C1426.138,191.626,1442.582,191.626,1459.303,191.626z"/>
	<path fill-rule="evenodd" clip-rule="evenodd" fill="#FFFFFF" d="M565.204,356.603c0-58.685,0-116.769,0-175.571
		c1.976,0,3.739,0,5.501,0c21.652,0,43.331-0.653,64.946,0.254c12.191,0.512,24.536,2.614,36.341,5.763
		c14.439,3.851,26.899,12.126,35.963,24.117c6.962,9.21,11.962,19.53,14.556,31.238c2.561,11.562,3.596,23.08,3.135,34.716
		c-0.27,6.823-1.958,13.649-3.528,20.354c-3.819,16.303-11.989,30.231-25.473,40.181c-6.981,5.152-15.123,9.061-23.247,12.236
		c-7.206,2.814-15.039,4.289-22.729,5.521c-6.823,1.093-13.828,1.368-20.758,1.427c-20.484,0.173-40.972,0.063-61.458,0.049
		C567.493,356.886,566.533,356.723,565.204,356.603z M617.251,222.397c0,31.25,0,61.283,0,91.102c9.051,0,17.865,0.853,26.434-0.229
		c9.449-1.192,17.537-6.56,22.081-14.92c5.705-10.495,7.438-22.269,6.088-34.205c-0.887-7.856-0.935-15.833-5.479-23.076
		c-4.839-7.715-10.705-14.412-19.527-16.186C637.336,222.97,627.4,223.156,617.251,222.397z"/>
	<path fill-rule="evenodd" clip-rule="evenodd" fill="#FFFFFF" d="M93.035,355.941c2.628-14.171,5.157-27.805,7.732-41.689
		c-6.713,0-12.847,0-19.538,0c2.156-11.076,4.284-22.01,6.468-33.232c4.21,0,8.382-0.262,12.506,0.064
		c5.305,0.42,8.283-0.533,8.544-7.008c0.243-6.033,2.408-11.982,3.641-17.986c0.176-0.859-0.138-1.818-0.271-3.223
		c-6.286,0-12.371,0-18.875,0c2.2-11.285,4.289-21.997,6.434-32.999c6.201,0,12.647,0,19.35,0
		c2.611-12.961,5.184-25.73,7.759-38.518c11.81,0,23.727,0,35.767,0c-2.521,12.897-4.977,25.46-7.49,38.321
		c6.998,0,13.275,0,19.947,0c2.592-12.741,5.198-25.547,7.82-38.435c11.926,0,23.694,0,35.661,0
		c-2.549,12.774-5.051,25.313-7.634,38.255c6.715,0,13.114,0,19.937,0c-2.176,11.196-4.278,22.013-6.495,33.42
		c-3.778,0-7.714,0-11.65,0c-8.68,0-8.645,0.007-10.087,8.294c-0.919,5.286-1.999,10.543-2.937,15.825
		c-0.401,2.26-0.41,4.163,2.926,4.036c5.14-0.195,10.293-0.051,16.122-0.051c-2.148,11.193-4.221,21.992-6.325,32.958
		c-6.288,0-12.745,0-19.929,0c-1.203,7.286-2.376,14.565-3.613,21.833c-0.941,5.538-1.685,11.136-3.125,16.545
		c-0.397,1.494-2.941,3.381-4.551,3.431c-10.148,0.312-20.312,0.158-31.517,0.158c0.818-14.221,5.393-27.706,6.789-41.757
		c-6.838,0-13.162,0-20.052,0c-0.827,5.307-1.579,10.811-2.563,16.272c-1.062,5.892-2.349,11.743-3.522,17.614
		c-0.202,1.009-0.417,2.03-0.464,3.053c-0.144,3.103-1.421,4.865-4.817,4.842C114.828,355.896,104.673,355.941,93.035,355.941z
		 M140.415,283.065c8.396,0,16.682,0,24.425,0c2.301-11.095,4.51-21.751,6.689-32.261c-8.235,0-16.513,0-24.383,0
		C144.856,261.776,142.636,272.42,140.415,283.065z"/>
	<path fill-rule="evenodd" clip-rule="evenodd" fill="#FFFFFF" d="M392.098,294.705c0-6.786-0.718-13.45,0.132-19.91
		c2.775-21.071,9.83-39.528,29.354-51.663c9.141-5.682,18.91-8.448,28.839-10.683c7.864-1.77,16.395-1.898,24.471-1.119
		c15.966,1.539,31.754,4.878,44.357,15.729c12.381,10.662,21.195,23.599,21.854,40.789c0.383,9.979,2.419,20.093,1.312,29.875
		c-1.162,10.274-4.104,20.302-9.763,29.759c-6.586,11.006-15.44,18.621-26.455,23.894c-9.077,4.345-18.768,7.164-29.164,6.867
		c-7.382-0.21-14.875,1.127-22.157,0.319c-7.28-0.808-14.5-3.006-21.498-5.34c-12.394-4.133-21.495-12.479-29.086-23.065
		C396.551,319.36,394.399,307.007,392.098,294.705z M466.211,250.883c-3.57,0.937-7.224,1.11-9.991,2.766
		c-8.837,5.288-12.391,14.387-12.629,23.779c-0.229,8.981-0.788,18.25,2.932,27.191c3.162,7.602,12.985,15.515,21.3,15.205
		c10.418-0.389,19.97-8.092,22.102-18.646c2.092-10.357,2.699-20.97,0.19-31.298c-1.667-6.865-5.028-13.318-12.281-16.109
		C474.169,252.362,470.166,251.834,466.211,250.883z"/>
	<path fill-rule="evenodd" clip-rule="evenodd" fill="#FFFFFF" d="M741.058,294.991c0-7.015-0.71-13.677,0.13-20.139
		c2.741-21.078,9.784-39.529,29.295-51.682c9.138-5.69,18.877-8.819,28.83-10.643c9.943-1.823,20.254-1.896,30.691-0.2
		c12.107,1.967,23.862,4.48,33.702,11.689c6.56,4.805,12.33,11.054,17.333,17.523c5.818,7.523,8.739,16.496,9.051,26.244
		c0.32,9.98,2.357,20.085,1.286,29.878c-1.125,10.297-4.067,20.34-9.724,29.793c-6.571,10.981-15.408,18.631-26.44,23.895
		c-9.088,4.335-18.764,7.189-29.16,6.903c-7.384-0.202-14.859,1.05-22.161,0.316c-6.977-0.701-13.943-2.644-20.623-4.901
		c-12.467-4.214-21.925-12.336-29.71-23.051C745.625,319.699,743.434,307.216,741.058,294.991z M815.241,250.877
		c-3.607,0.933-7.252,1.104-10.04,2.738c-8.932,5.234-12.4,14.397-12.65,23.771c-0.239,8.977-0.809,18.247,2.923,27.193
		c3.187,7.64,12.873,15.508,21.261,15.245c10.412-0.326,19.896-7.969,22.128-18.609c2.208-10.521,2.746-21.345,0.148-31.768
		c-1.631-6.551-5.061-12.986-12.18-15.664C823.152,252.401,819.167,251.833,815.241,250.877z"/>
	<path fill-rule="evenodd" clip-rule="evenodd" fill="#FFFFFF" d="M1052.852,355.734c-17.147,0-33.736,0-50.626,0
		c-0.108-1.118-0.285-2.067-0.282-3.016c0.087-27.483,0.158-54.969,0.312-82.451c0.045-8.01-6.524-14.656-14.594-15.521
		c-6.503-0.696-12.382-0.205-18.364,2.839c-3.907,1.988-5.73,4.047-5.707,8.521c0.148,27.994,0.075,55.988,0.075,83.983
		c0,1.783,0,3.568,0,5.6c-16.81,0-33.056,0-49.726,0c0-47.087,0-94.008,0-141.216c14.437,0,29.301,0,44.697,0
		c0,5.707,0,11.431,0,16.562c2.949-2.518,6.011-4.966,8.883-7.62c7.091-6.552,15.521-9.864,25.037-10.641
		c6.13-0.5,12.424-2.057,18.364-1.196c12.806,1.855,24.599,5.346,32.531,17.793c6.81,10.685,9.113,21.968,9.267,33.852
		C1053.114,293.869,1052.852,324.522,1052.852,355.734z"/>
	<path fill-rule="evenodd" clip-rule="evenodd" fill="#FFFFFF" d="M1611.716,256.806c-17.432,0-33.417,0-49.507,0
		c-1.925-5.992-5.188-10.932-11.521-12.916c-8.021-2.514-15.73,0.359-17.33,6.907c-0.524,2.144,0.667,5.841,2.373,7.202
		c8.053,6.425,18.105,7.335,27.828,9.311c7.634,1.55,15.186,3.825,22.511,6.5c8.831,3.224,17.634,7.048,23.023,15.335
		c2.718,4.177,4.733,8.933,6.358,13.671c2.493,7.272,1.465,14.848-1.039,21.762c-2.112,5.829-5.34,11.582-9.3,16.348
		c-8.288,9.974-20.21,14.475-32.394,16.463c-10.365,1.692-21.225,0.099-31.784,0.961c-8.39,0.685-16.147-1.398-23.8-3.696
		c-15.565-4.673-28.354-13.405-35.128-28.801c-2.23-5.069-2.891-10.83-4.363-16.646c17.294,0,33.901,0,50.51,0
		c-0.029,8.177,5.767,14.092,13.833,16.091c5.388,1.335,10.4,1.712,15.597,0.136c3.711-1.126,7.669-2.425,8.525-6.773
		c0.821-4.165-2.156-7.487-7.674-9.023c-12.961-3.608-26.053-6.771-38.925-10.664c-12.911-3.904-25.008-9.732-32.199-21.833
		c-4.091-6.884-4.683-15.015-4.489-23.075c0.526-22.031,18.996-35.472,35.656-39.529c11.252-2.741,22.676-4.336,34.161-3.185
		c12.094,1.213,23.834,3.602,35.014,9.459c8.247,4.32,14.183,10.288,18.421,17.803
		C1609.039,243.873,1609.815,250.368,1611.716,256.806z"/>
	<path fill-rule="evenodd" clip-rule="evenodd" fill="#FFFFFF" d="M290.075,225.204c-16.225,0-31.823,0-47.754,0
		c0-14.812,0-29.201,0-43.882c48.993,0,97.896,0,147.188,0c0,14.486,0,28.884,0,43.626c-15.636,0-31.391,0-47.588,0
		c0,43.695,0,87.054,0,130.701c-17.364,0-34.286,0-51.846,0C290.075,312.347,290.075,268.985,290.075,225.204z"/>
	<path fill-rule="evenodd" clip-rule="evenodd" fill="#FFFFFF" d="M1268.267,181.199c17.3,0,34.087,0,51.441,0
		c0,43.524,0,86.887,0,130.641c24.815,0,49.068,0,73.691,0c0,14.765,0,29.138,0,43.809c-41.621,0-83.19,0-125.133,0
		C1268.267,297.676,1268.267,239.669,1268.267,181.199z"/>
	<path fill-rule="evenodd" clip-rule="evenodd" fill="#FFFFFF" d="M1243.631,317.567c0,8.989,0,18.806,0,28.62
		c0,8.104-0.804,9.069-8.86,10.229c-11.065,1.593-22.054,2.55-33.376,2.035c-11.686-0.531-22.01-3.715-31.284-10.151
		c-6.285-4.362-10.572-10.883-12.599-18.357c-1.718-6.334-3.346-12.529-3.065-19.506c0.773-19.291,0.223-38.635,0.18-57.958
		c-0.001-0.299-0.216-0.597-0.548-1.464c-6.003,0-12.236,0-18.729,0c0-12.482,0-24.395,0-36.78c4.31,0,8.609-0.293,12.857,0.062
		c8.63,0.724,12.984-1.422,16.221-9.064c0.767-1.812,0.631-4.068,0.648-6.122c0.067-7.773,0.027-15.548,0.027-23.618
		c13.27,0,26.171,0,39.449,0c0,12.68,0,25.28,0,38.458c13.746,0,27.135,0,40.897,0c0,12.469,0,24.365,0,36.78
		c-13.242,0-26.64,0-40.813,0c0,2.249,0.018,3.995-0.003,5.74c-0.186,15.791-0.34,31.581-0.585,47.371
		c-0.128,8.173,8.49,16.065,16.875,15.391C1228.371,318.636,1235.828,318.137,1243.631,317.567z"/>
	<path fill-rule="evenodd" clip-rule="evenodd" fill="#FFFFFF" d="M1641.278,251.085c-6.26,0-12.374,0-18.876,0
		c0-12.416,0-24.45,0-36.836c4.322,0,8.64-0.309,12.896,0.065c8.288,0.731,12.59-1.323,15.886-8.787
		c0.854-1.934,0.777-4.362,0.792-6.566c0.046-6.824-0.078-13.65-0.115-20.476c-0.004-0.823,0.127-1.646,0.229-2.88
		c12.958,0,25.869,0,39.334,0c0,12.437,0,25.159,0,38.451c13.927,0,27.319,0,41.023,0c0,12.472,0,24.37,0,36.78
		c-13.414,0-26.814,0-40.522,0c-0.142,1.748-0.32,3.017-0.337,4.29c-0.217,16.289-0.43,32.579-0.602,48.868
		c-0.086,8.25,8.549,15.9,17.027,15.217c7.423-0.599,14.85-1.126,22.55-1.706c0,10.41,0.056,21.871-0.023,33.332
		c-0.04,5.895-5.892,4.841-8.575,5.356c-8.993,1.727-18.263,2.357-27.45,2.651c-13.199,0.424-25.82-2.243-36.812-10.016
		c-6.621-4.682-11.043-11.285-13.294-19.03c-1.837-6.317-3.284-12.562-3.007-19.517c0.756-18.962,0.254-37.972,0.231-56.963
		C1641.633,252.693,1641.439,252.065,1641.278,251.085z"/>
	<path fill-rule="evenodd" fill-opacity="0" clip-rule="evenodd" fill="#FFFFFF" d="M1915.626,275.55c-0.062,29.215-24.164,53.208-53.249,53.013
		c-29.355-0.197-52.801-23.973-52.691-53.433c0.107-29.1,23.764-52.713,52.86-52.762
		C1891.685,222.318,1915.688,246.368,1915.626,275.55z"/>
	<path fill-rule="evenodd" clip-rule="evenodd" fill="#FFFFFF" d="M1459.381,355.8c-16.674,0-32.8,0-49.439,0
		c0-47.177,0-94.214,0-141.394c16.076,0,32.665,0,49.439,0C1459.381,261.517,1459.381,308.406,1459.381,355.8z"/>
	<path fill-rule="evenodd" clip-rule="evenodd" fill="#FFFFFF" d="M1072.241,170.09c16.769,0,33.363,0,50.562,0
		c0,3.466,0.001,7.075,0.001,10.684c0,11.489,0.131,22.98-0.101,34.464c-0.053,2.577-0.925,5.379-2.189,7.647
		c-5.275,9.465-10.824,18.777-16.313,28.121c-2.506,4.263-4.977,8.561-7.766,12.635c-0.634,0.926-2.52,1.361-3.842,1.387
		c-6.771,0.135-13.548,0.062-20.669,0.062c8.42-14.971,16.706-29.703,25.386-45.137c-8.633,0-16.678,0-25.069,0
		C1072.241,203.159,1072.241,186.93,1072.241,170.09z"/>
	<path fill-rule="evenodd" clip-rule="evenodd" fill="#FFFFFF" d="M1459.303,191.626c-16.721,0-33.165,0-49.729,0
		c0-14.028,0-27.933,0-42.135c16.396,0,32.911,0,49.729,0C1459.303,163.335,1459.303,177.231,1459.303,191.626z"/>
	<path fill-rule="evenodd" clip-rule="evenodd" d="M617.251,222.397c10.149,0.759,20.085,0.572,29.598,2.486
		c8.822,1.774,14.688,8.471,19.527,16.186c4.543,7.243,4.591,15.22,5.479,23.076c1.351,11.937-0.383,23.71-6.088,34.205
		c-4.544,8.36-12.632,13.728-22.081,14.92c-8.569,1.081-17.383,0.229-26.434,0.229C617.251,283.681,617.251,253.647,617.251,222.397
		z"/>
	<path fill-rule="evenodd" clip-rule="evenodd" d="M140.415,283.065c2.221-10.646,4.441-21.289,6.731-32.261
		c7.87,0,16.148,0,24.383,0c-2.179,10.51-4.389,21.167-6.689,32.261C157.097,283.065,148.811,283.065,140.415,283.065z"/>
	<path fill-rule="evenodd" clip-rule="evenodd" d="M466.211,250.883c3.955,0.951,7.958,1.479,11.623,2.888
		c7.253,2.791,10.614,9.244,12.281,16.109c2.509,10.328,1.902,20.94-0.19,31.298c-2.131,10.555-11.684,18.258-22.102,18.646
		c-8.315,0.31-18.138-7.604-21.3-15.205c-3.72-8.941-3.161-18.21-2.932-27.191c0.239-9.392,3.792-18.492,12.629-23.779
		C458.987,251.994,462.641,251.82,466.211,250.883z"/>
	<path fill-rule="evenodd" clip-rule="evenodd" d="M815.241,250.877c3.926,0.956,7.911,1.523,11.59,2.907
		c7.12,2.678,10.549,9.113,12.18,15.664c2.598,10.423,2.06,21.247-0.148,31.768c-2.232,10.641-11.717,18.283-22.128,18.609
		c-8.388,0.263-18.074-7.605-21.261-15.245c-3.732-8.946-3.162-18.217-2.923-27.193c0.25-9.375,3.718-18.538,12.65-23.771
		C807.989,251.981,811.634,251.81,815.241,250.877z"/>
</g>
</svg>
